{"title":"Sivaji (2007) BR Rip 4K UHD x265 HEVC 17 GB AC3  ESubs- Shammu","uid":11880393,"size":18183075021,"categoryP":"video","categoryS":"hd___movies","magnet":"?xt=urn:btih:c9f2a75999b493531bf2a003c1981e0a14b67347&amp;dn=Sivaji+%282007%29+BR+Rip+4K+UHD+x265+HEVC+17+GB+AC3++ESubs-+Shammu&amp;tr=udp%3A%2F%2Ftracker.openbittorrent.com%3A80&amp;tr=udp%3A%2F%2Fopen.demonii.com%3A1337&amp;tr=udp%3A%2F%2Ftracker.coppersurfer.tk%3A6969&amp;tr=udp%3A%2F%2Fexodus.desync.com%3A6969","seeders":6,"leechers":3,"uploader":"TeamXDN","files":1,"time":1430669716,"description":"Sivaji (2007) BR Rip 4K UHD x265 HEVC 17 GB AC3  ESubs- Shammu\n\nFormat                                   : Matroska\nFormat version                           : Version 2\nFile size                                : 16.9 GiB\nDuration                                 : 3h 8mn\nOverall bit rate                         : 12.9 Mbps\nEncoded date                             : UTC 2015-05-02 17:00:19\nDURATION                                 : 03:07:11.917000000\nNUMBER_OF_FRAMES                         : 2318\nNUMBER_OF_BYTES                          : 65531\n \nVideo\nID                                       : 1\nFormat                                   : HEVC\nFormat/Info                              : High Efficiency Video Coding\nCodec ID                                 : V_MPEGH/ISO/HEVC\nDuration                                 : 3h 8mn\nBit rate                                 : 12.2 Mbps\nWidth                                    : 3 840 pixels\nHeight                                   : 2 160 pixels\nDisplay aspect ratio                     : 16:9\nFrame rate mode                          : Constant\nFrame rate                               : 24.000 fps\nBits/(Pixel*Frame)                       : 0.061\nStream size                              : 16.0 GiB (95%)\nDefault                                  : Yes\nForced                                   : No\n \nAudio\nID                                       : 2\nFormat                                   : AC-3\nFormat/Info                              : Audio Coding 3\nMode extension                           : CM (complete main)\nFormat settings, Endianness              : Big\nCodec ID                                 : A_AC3\nDuration                                 : 3h 8mn\nBit rate mode                            : Constant\nBit rate                                 : 448 Kbps\nChannel(s)                               : 6 channels\nChannel positions                        : Front: L C R, Side: L R, LFE\nSampling rate                            : 48.0 KHz\nBit depth                                : 16 bits\nCompression mode                         : Lossy\nStream size                              : 604 MiB (3%)\nDefault                                  : Yes\nForced                                   : No\n \nText\nID                                       : 3\nFormat                                   : UTF-8\nCodec ID                                 : S_TEXT/UTF8\nCodec ID/Info                            : UTF-8 Plain Text\nDefault                                  : Yes\nForced                                   : No","torrent":{"xt":"urn:btih:c9f2a75999b493531bf2a003c1981e0a14b67347","amp;dn":"Sivaji+%282007%29+BR+Rip+4K+UHD+x265+HEVC+17+GB+AC3++ESubs-+Shammu","amp;tr":["udp%3A%2F%2Ftracker.openbittorrent.com%3A80","udp%3A%2F%2Fopen.demonii.com%3A1337","udp%3A%2F%2Ftracker.coppersurfer.tk%3A6969","udp%3A%2F%2Fexodus.desync.com%3A6969"],"infoHash":"c9f2a75999b493531bf2a003c1981e0a14b67347","infoHashBuffer":{"type":"Buffer","data":[201,242,167,89,153,180,147,83,27,242,160,3,193,152,30,10,20,182,115,71]},"announce":[],"urlList":[]}}